<svg width="63" height="63" viewBox="0 0 63 63" fill="none" xmlns="http://www.w3.org/2000/svg">
<circle cx="31.5" cy="31.5" r="31" stroke="black"/>
<path d="M12.208 42.296L12.4 40.376H12.592C13.424 41.1013 14.3627 41.6667 15.408 42.072C16.4533 42.4773 17.488 42.68 18.512 42.68C19.9627 42.68 21.136 42.2853 22.032 41.496C22.928 40.6853 23.376 39.608 23.376 38.264C23.376 37.5173 23.2053 36.824 22.864 36.184C22.544 35.544 22 34.8933 21.232 34.232C20.4853 33.5707 19.4507 32.856 18.128 32.088C17.2107 31.5547 16.336 31 15.504 30.424C14.672 29.8267 13.9893 29.144 13.456 28.376C12.9227 27.5867 12.656 26.648 12.656 25.56C12.656 23.9387 13.2427 22.6373 14.416 21.656C15.5893 20.6533 17.136 20.152 19.056 20.152C19.9093 20.152 20.8267 20.248 21.808 20.44C22.7893 20.6107 23.5467 20.8347 24.08 21.112L23.92 22.904H23.728C22.512 21.5813 20.9547 20.92 19.056 20.92C17.6907 20.92 16.592 21.272 15.76 21.976C14.928 22.6587 14.512 23.5867 14.512 24.76C14.512 25.6347 14.736 26.392 15.184 27.032C15.6533 27.6507 16.2507 28.216 16.976 28.728C17.7013 29.2187 18.48 29.6987 19.312 30.168C20.272 30.7227 21.2 31.3093 22.096 31.928C23.0133 32.5467 23.76 33.2933 24.336 34.168C24.9333 35.0213 25.232 36.0987 25.232 37.4C25.232 38.5947 24.9547 39.6507 24.4 40.568C23.8453 41.464 23.056 42.168 22.032 42.68C21.0293 43.192 19.856 43.448 18.512 43.448C17.6587 43.448 16.656 43.3413 15.504 43.128C14.352 42.9147 13.2533 42.6373 12.208 42.296ZM31.535 43V20.6H38.575C41.0497 20.6 43.2043 21.0693 45.039 22.008C46.8737 22.9467 48.303 24.2587 49.327 25.944C50.351 27.608 50.863 29.56 50.863 31.8C50.863 34.04 50.351 36.0027 49.327 37.688C48.303 39.352 46.8737 40.6533 45.039 41.592C43.2043 42.5307 41.0497 43 38.575 43H31.535ZM38.575 21.368H33.711V42.232H38.575C41.6683 42.232 44.079 41.3147 45.807 39.48C47.5563 37.6453 48.431 35.0853 48.431 31.8C48.431 28.5147 47.5563 25.9547 45.807 24.12C44.079 22.2853 41.6683 21.368 38.575 21.368Z" fill="black"/>
</svg>
